<svg width="232" height="224" viewBox="0 0 232 224" fill="none" xmlns="http://www.w3.org/2000/svg">
<path d="M43.1152 29.8199L112.459 95.8628L75.8869 119.799L43.1152 29.8199Z" fill="#C7CBF1"/>
<path d="M34.6117 49.0423L113.694 103.045L81.4576 132.563L34.6117 49.0423Z" fill="#C7CBF1"/>
<path d="M83.4407 14.2012L124.042 100.93L81.2711 109.938L83.4407 14.2012Z" fill="#C7CBF1"/>
<path d="M68.5327 29.0191L122.582 108.07L81.8221 123.854L68.5327 29.0191Z" fill="#C7CBF1"/>
<path d="M83.4407 14.2012L124.042 100.93L81.2711 109.938L83.4407 14.2012Z" fill="#C7CBF1"/>
<path d="M68.5327 29.0191L122.582 108.07L81.8221 123.854L68.5327 29.0191Z" fill="#C7CBF1"/>
<path d="M115.871 0.542251L135.717 94.2248L92.0176 93.2856L115.871 0.542251Z" fill="#C7CBF1"/>
<path d="M97.9873 11.5876L132.674 100.847L89.3943 106.963L97.9873 11.5876Z" fill="#C7CBF1"/>
<path d="M157.962 10.4638L142.405 104.953L102.035 88.1971L157.962 10.4638Z" fill="#C7CBF1"/>
<path d="M137.287 14.255L137.163 110.017L94.6198 99.9861L137.287 14.255Z" fill="#C7CBF1"/>
<path d="M190.619 182.198L113.066 126.021L146.11 97.4089L190.619 182.198Z" fill="#C7CBF1"/>
<path d="M196.476 162.012L110.883 119.068L138.883 85.5045L196.476 162.012Z" fill="#C7CBF1"/>
<path d="M152.744 203.069L100.91 122.548L142.093 107.901L152.744 203.069Z" fill="#C7CBF1"/>
<path d="M165.536 186.391L101.403 115.277L139.686 94.1841L165.536 186.391Z" fill="#C7CBF1"/>
<path d="M152.744 203.069L100.91 122.548L142.093 107.901L152.744 203.069Z" fill="#C7CBF1"/>
<path d="M165.536 186.391L101.403 115.277L139.686 94.1841L165.536 186.391Z" fill="#C7CBF1"/>
<path d="M122.431 220.941L90.2368 130.754L133.669 125.841L122.431 220.941Z" fill="#C7CBF1"/>
<path d="M138.677 207.604L92.3674 123.785L134.44 111.936L138.677 207.604Z" fill="#C7CBF1"/>
<path d="M79.3918 216.737L82.1748 121.016L124.423 132.224L79.3918 216.737Z" fill="#C7CBF1"/>
<path d="M99.3739 210.215L86.6925 115.297L130.195 119.549L99.3739 210.215Z" fill="#C7CBF1"/>
<path d="M29.2153 180.113L92.6732 113.649L116.113 146.497L29.2153 180.113Z" fill="#C7CBF1"/>
<path d="M47.8904 187.238L99.6196 112.241L128.434 140.877L47.8904 187.238Z" fill="#C7CBF1"/>
<path d="M13.8031 143.49L97.4972 102.771L106.526 141.899L13.8031 143.49Z" fill="#C7CBF1"/>
<path d="M28.2585 156.69L104.422 103.851L119.998 140.868L28.2585 156.69Z" fill="#C7CBF1"/>
<path d="M13.8031 143.49L97.4972 102.771L106.526 141.899L13.8031 143.49Z" fill="#C7CBF1"/>
<path d="M28.2585 156.69L104.422 103.851L119.998 140.868L28.2585 156.69Z" fill="#C7CBF1"/>
<path d="M0.344951 114.08L90.9213 92.2506L90.3238 132.608L0.344951 114.08Z" fill="#C7CBF1"/>
<path d="M11.1681 130.166L97.3549 94.8099L103.587 134.515L11.1681 130.166Z" fill="#C7CBF1"/>
<path d="M9.65212 74.8693L101.263 85.6771L85.3249 123.556L9.65212 74.8693Z" fill="#C7CBF1"/>
<path d="M13.4707 93.8038L106.203 90.3236L96.7935 129.955L13.4707 93.8038Z" fill="#C7CBF1"/>
<path d="M204.731 38.6731L133.835 103.047L112.613 64.835L204.731 38.6731Z" fill="#C7CBF1"/>
<path d="M186.176 28.7983L126.582 103.757L99.4784 69.4655L186.176 28.7983Z" fill="#C7CBF1"/>
<path d="M217.385 80.0247L127.941 114.231L122.057 70.9198L217.385 80.0247Z" fill="#C7CBF1"/>
<path d="M203.687 64.0817L120.926 112.257L108.138 70.4605L203.687 64.0817Z" fill="#C7CBF1"/>
<path d="M217.385 80.0247L127.941 114.231L122.057 70.9198L217.385 80.0247Z" fill="#C7CBF1"/>
<path d="M203.687 64.0817L120.926 112.257L108.138 70.4605L203.687 64.0817Z" fill="#C7CBF1"/>
<path d="M228.657 113.36L133.782 126.362L137.887 82.8454L228.657 113.36Z" fill="#C7CBF1"/>
<path d="M218.937 94.7228L127.398 122.846L124.436 79.2375L218.937 94.7228Z" fill="#C7CBF1"/>
<path d="M215.71 154.621L122.597 132.254L142.236 93.205L215.71 154.621Z" fill="#C7CBF1"/>
<path d="M213.428 133.725L117.927 126.659L131.016 84.9551L213.428 133.725Z" fill="#C7CBF1"/>
<ellipse cx="110" cy="114.5" rx="66" ry="59.5" fill="#C7CBF1"/>
<path d="M82.1272 67.3872C79.9325 67.294 77.7818 66.8326 75.7418 66.0206C74.9138 65.693 74.5472 64.722 74.8952 63.9351L74.9085 63.9075C75.2565 63.1195 76.0925 62.7632 76.7992 63.0435C78.5818 63.7539 80.4632 64.1564 82.3805 64.2383C83.1405 64.2726 83.7578 64.9383 83.7525 65.8007V65.8315C83.7485 66.6914 83.0165 67.4258 82.1272 67.3872" fill="#EDBF91"/>
<path d="M147.423 67.3872C149.617 67.294 151.769 66.8326 153.807 66.0206C154.635 65.693 155.002 64.722 154.654 63.9351L154.642 63.9075C154.293 63.1195 153.457 62.7632 152.751 63.0435C150.967 63.7539 149.086 64.1564 147.169 64.2383C146.41 64.2726 145.793 64.9383 145.797 65.8007L145.798 65.8315C145.802 66.6914 146.533 67.4258 147.423 67.3872" fill="#EDBF91"/>
<path d="M80.3752 65.7821C80.2686 66.942 79.8952 68.0352 79.3086 69.0888C78.8952 69.8352 78.3752 70.5685 77.7486 71.2753C77.5219 71.5289 77.2686 71.7821 77.0152 72.0488C74.8686 74.2087 71.8686 76.1685 68.5352 78.0488L68.5219 78.0623L63.0286 75.7155L67.7752 65.5155C69.6152 63.0488 71.5486 61.9956 73.4952 61.9956C73.7086 61.9956 73.9086 62.0087 74.1219 62.0352L74.2019 62.0488C74.4019 62.0623 74.5886 62.1019 74.7886 62.142C74.9352 62.1821 75.0952 62.2221 75.2419 62.2753C75.3886 62.3019 75.5219 62.3555 75.6552 62.4087C75.8019 62.4623 75.9352 62.5155 76.0819 62.5821L76.3752 62.7155C76.7886 62.9155 77.2019 63.1555 77.6152 63.4352C77.7886 63.542 77.9752 63.6753 78.1486 63.8087C78.3752 63.9685 78.6019 64.142 78.8152 64.3289C79.0819 64.542 79.3352 64.7685 79.5886 65.0221C79.8552 65.2623 80.1219 65.5155 80.3752 65.7821" fill="#F7C899"/>
<path d="M149.175 65.7821C149.282 66.942 149.655 68.0352 150.242 69.0888C150.655 69.8352 151.175 70.5685 151.802 71.2753C152.028 71.5289 152.282 71.7821 152.535 72.0488C154.682 74.2087 157.682 76.1685 161.015 78.0488L161.028 78.0623L166.522 75.7155L161.775 65.5155C159.935 63.0488 158.002 61.9956 156.055 61.9956C155.842 61.9956 155.642 62.0087 155.428 62.0352L155.348 62.0488C155.148 62.0623 154.962 62.1019 154.762 62.142C154.615 62.1821 154.455 62.2221 154.309 62.2753C154.162 62.3019 154.028 62.3555 153.895 62.4087C153.748 62.4623 153.615 62.5155 153.468 62.5821L153.175 62.7155C152.762 62.9155 152.348 63.1555 151.935 63.4352C151.762 63.542 151.575 63.6753 151.402 63.8087C151.175 63.9685 150.948 64.142 150.735 64.3289C150.468 64.542 150.215 64.7685 149.962 65.0221C149.695 65.2623 149.429 65.5155 149.175 65.7821" fill="#F7C899"/>
<path d="M80.3752 65.7821C80.2686 66.942 79.8952 68.0352 79.3086 69.0888C78.8952 69.8352 78.3752 70.5685 77.7486 71.2753C77.5219 71.5289 77.2686 71.7821 77.0152 72.0488C74.8686 74.2087 71.8686 76.1685 68.5352 78.0488L68.5219 78.0623L63.0286 75.7155L67.7752 65.5155C69.6152 63.0488 71.5486 61.9956 73.4952 61.9956C73.7086 61.9956 73.9086 62.0087 74.1219 62.0352L74.2019 62.0488C74.4019 62.0623 74.5886 62.1019 74.7886 62.142C74.9352 62.1821 75.0952 62.2221 75.2419 62.2753C75.3886 62.3019 75.5219 62.3555 75.6552 62.4087C75.8019 62.4623 75.9352 62.5155 76.0819 62.5821L76.3752 62.7155C76.7886 62.9155 77.2019 63.1555 77.6152 63.4352C77.7886 63.542 77.9752 63.6753 78.1486 63.8087C78.3752 63.9685 78.6019 64.142 78.8152 64.3289C79.0819 64.542 79.3352 64.7685 79.5886 65.0221C79.8552 65.2623 80.1219 65.5155 80.3752 65.7821" fill="#F7C899"/>
<path d="M149.175 65.7821C149.282 66.942 149.655 68.0352 150.242 69.0888C150.655 69.8352 151.175 70.5685 151.802 71.2753C152.028 71.5289 152.282 71.7821 152.535 72.0488C154.682 74.2087 157.682 76.1685 161.015 78.0488L161.028 78.0623L166.522 75.7155L161.775 65.5155C159.935 63.0488 158.002 61.9956 156.055 61.9956C155.842 61.9956 155.642 62.0087 155.428 62.0352L155.348 62.0488C155.148 62.0623 154.962 62.1019 154.762 62.142C154.615 62.1821 154.455 62.2221 154.309 62.2753C154.162 62.3019 154.028 62.3555 153.895 62.4087C153.748 62.4623 153.615 62.5155 153.468 62.5821L153.175 62.7155C152.762 62.9155 152.348 63.1555 151.935 63.4352C151.762 63.542 151.575 63.6753 151.402 63.8087C151.175 63.9685 150.948 64.142 150.735 64.3289C150.468 64.542 150.215 64.7685 149.962 65.0221C149.695 65.2623 149.429 65.5155 149.175 65.7821" fill="#F7C899"/>
<path d="M80.3751 65.7822C80.2685 66.942 79.8951 68.0352 79.3085 69.0888C78.8951 69.8352 78.3751 70.5686 77.7485 71.2754C77.5218 71.529 77.2685 71.7822 77.0151 72.0488C74.8685 74.2087 71.8685 76.1686 68.5351 78.0488C66.7325 73.8472 70.3538 71.1196 73.2685 67.8488C74.3218 66.4488 75.3885 65.5019 76.4818 64.9555C77.2551 64.5555 78.0285 64.3555 78.8151 64.329C79.0818 64.542 79.3351 64.7686 79.5885 65.0222C79.8551 65.2623 80.1218 65.5155 80.3751 65.7822Z" fill="#EDBF91"/>
<path d="M149.175 65.7822C149.282 66.942 149.655 68.0352 150.242 69.0888C150.655 69.8352 151.175 70.5686 151.802 71.2754C152.028 71.529 152.282 71.7822 152.535 72.0488C154.682 74.2087 157.682 76.1686 161.015 78.0488C162.816 73.8472 159.195 71.1196 156.282 67.8488C155.228 66.4488 154.162 65.5019 153.068 64.9555C152.295 64.5555 151.522 64.3555 150.735 64.329C150.468 64.542 150.215 64.7686 149.962 65.0222C149.695 65.2623 149.429 65.5155 149.175 65.7822Z" fill="#EDBF91"/>
<path d="M174.461 107.298C166.794 113.432 158.834 118.751 148.007 116.658C146.247 120.978 144.421 124.911 142.434 128.338C141.501 129.951 140.527 131.445 139.501 132.832C135.754 137.872 133.687 143.898 133.541 150.192L133.474 153.325C127.261 155.672 121.034 156.872 114.781 156.885C108.527 156.872 102.301 155.672 96.0872 153.325L96.0206 150.192C95.8872 144.245 94.0339 138.525 90.6472 133.672C90.4606 133.392 90.2605 133.111 90.0605 132.832C89.0339 131.445 88.0605 129.951 87.1272 128.338C85.1405 124.911 83.3139 120.978 81.5539 116.658C77.3939 117.458 73.6606 117.178 70.1939 116.165C64.6606 114.538 59.8206 111.072 55.1006 107.298C54.5672 98.0582 56.3006 89.8983 59.6606 82.3113V82.2847C60.6472 80.0446 61.7806 77.8582 63.0339 75.7113L68.5272 78.0582C68.5272 88.165 71.3139 92.565 68.9139 98.4983C70.3272 95.8718 73.7806 94.4582 77.3406 95.2718C79.6472 95.8051 81.5139 97.165 82.5672 98.8582C82.6472 98.9779 82.7272 99.0983 82.7939 99.2317C84.5139 98.0051 86.7406 97.2718 89.1672 97.2718C91.4206 97.2718 93.5672 98.0718 95.2872 99.365C96.9272 98.8317 98.3539 98.4847 99.6739 98.2582C102.114 97.8446 104.141 97.8847 106.221 98.0718C108.714 98.3113 111.301 98.7779 114.781 98.9779C118.261 98.7779 120.834 98.3113 123.327 98.0718H123.341C125.421 97.8847 127.447 97.8446 129.887 98.2582C131.207 98.4847 132.634 98.8317 134.274 99.365C135.994 98.0718 138.141 97.2718 140.394 97.2718C142.821 97.2718 145.047 98.0051 146.767 99.2317C146.834 99.0983 146.914 98.9779 146.994 98.8582C148.047 97.165 149.914 95.8051 152.221 95.2718C155.781 94.4582 159.234 95.8718 160.647 98.4983C158.247 92.565 161.034 88.165 161.034 78.0582L166.527 75.7113C167.781 77.8582 168.914 80.0446 169.901 82.2847V82.3113C173.261 89.8983 174.994 98.0582 174.461 107.298" fill="#F7C899"/>
<path d="M106.219 103.667V89.7221H123.33V103.667H106.219Z" fill="#F7C899"/>
<path d="M82.5618 98.8622C82.6418 98.982 82.7218 99.1018 82.7884 99.2351C82.6551 99.1288 82.5751 99.0086 82.5618 98.8622Z" fill="#F5C08C"/>
<path d="M146.989 98.8622C146.909 98.982 146.829 99.1018 146.762 99.2351C146.895 99.1288 146.975 99.0086 146.989 98.8622Z" fill="#F5C08C"/>
<path d="M76.0378 75.3701L76.0165 75.3847C75.4392 75.7805 74.6498 75.6327 74.2538 75.0555L70.3832 69.2847L72.4965 67.8384L76.3672 73.6076C76.7632 74.1847 76.6152 74.9743 76.0378 75.3701" fill="#F7C899"/>
<path d="M153.511 75.3701L153.532 75.3847C154.11 75.7805 154.899 75.6327 155.295 75.0555L159.166 69.2847L157.052 67.8384L153.182 73.6076C152.787 74.1847 152.934 74.9743 153.511 75.3701" fill="#F7C899"/>
<path d="M76.4899 73.6076L76.5032 73.6289C76.8779 74.2206 76.7525 74.9717 76.2245 75.306L74.2712 76.5409C73.7432 76.8753 73.0112 76.666 72.6365 76.0742L72.6232 76.0529C72.2485 75.4608 72.3739 74.7102 72.9019 74.3753L74.8552 73.1409C75.3845 72.806 76.1152 73.0154 76.4899 73.6076" fill="#F7C899"/>
<path d="M153.059 73.6076L153.046 73.6289C152.671 74.2206 152.796 74.9717 153.324 75.306L155.278 76.5409C155.806 76.8753 156.538 76.666 156.912 76.0742L156.926 76.0529C157.3 75.4608 157.175 74.7102 156.647 74.3753L154.694 73.1409C154.166 72.806 153.434 73.0154 153.059 73.6076" fill="#F7C899"/>
<path d="M74.3832 76.4726L74.3659 76.4914C73.8752 76.993 73.0725 77.0007 72.5725 76.5111L71.5525 75.5753C71.0525 75.0862 71.0432 74.2835 71.5339 73.7821L71.5512 73.7649C72.0419 73.2633 72.8445 73.2554 73.3445 73.7445L74.3645 74.6805C74.8645 75.1701 74.8739 75.9726 74.3832 76.4726Z" fill="#F7C899"/>
<path d="M155.166 76.4726L155.183 76.4914C155.674 76.993 156.476 77.0007 156.976 76.5111L157.996 75.5753C158.498 75.0862 158.506 74.2835 158.016 73.7821L157.998 73.7649C157.508 73.2633 156.706 73.2554 156.204 73.7445L155.184 74.6805C154.684 75.1701 154.676 75.9726 155.166 76.4726Z" fill="#F7C899"/>
<path d="M78.6672 74.5179L78.6445 74.534C78.0232 74.958 77.1765 74.8007 76.7512 74.1793L72.3525 67.6528L74.6205 66.0981L79.0205 72.6257C79.4445 73.246 79.2872 74.0924 78.6672 74.5179" fill="#F7C899"/>
<path d="M150.883 74.5179L150.906 74.534C151.526 74.958 152.373 74.8007 152.798 74.1793L157.198 67.6528L154.929 66.0981L150.53 72.6257C150.105 73.246 150.263 74.0924 150.883 74.5179" fill="#F7C899"/>
<path d="M80.8192 73.1289L80.7965 73.1445C80.1765 73.5701 79.3298 73.4112 78.9045 72.7915L74.2965 65.8836L76.5658 64.3289L81.1725 71.2368C81.5979 71.8565 81.4392 72.7051 80.8192 73.1289" fill="#F7C899"/>
<path d="M148.73 73.1289L148.753 73.1445C149.373 73.5701 150.221 73.4112 150.645 72.7915L155.253 65.8836L152.985 64.3289L148.377 71.2368C147.951 71.8565 148.11 72.7051 148.73 73.1289" fill="#F7C899"/>
<path d="M82.3618 71.0887L82.3351 71.1018C81.7218 71.5289 80.8685 71.3685 80.4418 70.7554L79.3085 69.0887L76.4818 64.9554L76.1351 64.4487L77.6151 63.4351C77.7885 63.5419 77.9751 63.6753 78.1485 63.8086C78.3751 63.9685 78.6018 64.1419 78.8151 64.3289C79.0818 64.5419 79.3351 64.7685 79.5885 65.0221C79.8551 65.2622 80.1218 65.5154 80.3751 65.7821L82.7218 69.1955C83.1351 69.8086 82.9885 70.6622 82.3618 71.0887" fill="#F7C899"/>
<path d="M147.188 71.0887L147.215 71.1018C147.828 71.5289 148.682 71.3685 149.108 70.7554L150.242 69.0887L153.068 64.9554L153.415 64.4487L151.935 63.4351C151.762 63.5419 151.575 63.6753 151.402 63.8086C151.175 63.9685 150.948 64.1419 150.735 64.3289C150.468 64.5419 150.215 64.7685 149.962 65.0221C149.695 65.2622 149.428 65.5154 149.175 65.7821L146.828 69.1955C146.415 69.8086 146.562 70.6622 147.188 71.0887" fill="#F7C899"/>
<path d="M114.716 98.0983H114.79L114.839 98.0994C118.347 98.1128 119.876 97.5942 121.735 95.4555C122.555 94.5128 123.438 93.2582 124.583 91.5899C125.552 90.1806 126.312 88.0702 126.891 85.4008L127.106 85.4675C127.346 85.5103 127.598 85.4795 127.838 85.3863C128.863 85.0035 129.184 83.5514 129.495 81.6718C129.88 79.3514 129.782 77.2836 128.498 77.0686C127.798 76.9514 127.075 77.4087 126.496 78.2316L126.52 71.9822C126.531 69.2436 124.324 67.018 121.586 67.0087L108.212 66.9566C105.474 66.9462 102.562 68.5754 102.551 71.3139L102.684 76.9155C102.112 76.0874 101.923 76.8514 101.222 76.9634C99.9365 77.1675 99.7111 79.2352 100.079 81.5566C100.375 83.4394 100.795 84.8942 101.818 85.2847C102.058 85.3806 102.308 85.4128 102.548 85.3718L102.764 85.3076C103.322 87.9806 104.066 90.0983 105.023 91.5139C106.156 93.1915 107.028 94.453 107.842 95.4019C109.683 97.554 111.21 98.0847 114.716 98.0983" fill="#FFCF9F"/>
<path d="M126.007 69.8231C126.193 70.2206 126.343 70.6393 126.417 71.0873C126.465 71.3597 126.493 71.6326 126.493 71.9138L126.431 77.3007L126.37 78.8289L126.641 78.8263C126.97 78.3274 127.337 77.7075 127.733 77.3315H127.742C127.977 77.0955 128.243 77.0315 128.498 77.0685L128.89 71.605C128.938 70.3274 128.742 69.0649 128.334 67.8753C127.581 68.693 126.802 69.3263 126.007 69.8231" fill="#8F5329"/>
<path d="M117.474 60.2221C118.214 59.5581 117.534 57.818 117.379 58.0154C115.833 59.9805 113.587 59.3154 108.119 61.0128H108.11C106.453 61.6169 105.105 62.5805 103.754 64.005C103.537 64.23 103.338 64.4633 103.141 64.7076C101.601 66.6384 100.754 69.0701 100.838 71.5717L101.221 76.9608C101.522 76.9154 101.833 77.0393 102.133 77.3034C102.489 77.6154 102.815 78.1248 103.075 78.8018C103.122 78.9154 102.822 73.0898 103.459 69.7674C106.566 62.1836 119.183 81.0726 131.946 65.4169C132.046 65.2778 130.241 65.2138 130.349 65.0742C131.354 63.7753 131.749 62.8742 132.579 60.7488C132.59 60.7513 130.994 62.766 126.691 62.442C126.475 62.4258 127.489 61.1488 127.261 61.1914C125.025 61.6138 123.219 61.5529 121.465 60.9753L121.462 60.9769C118.993 60.0941 117.474 60.2221 117.474 60.2221" fill="#A15E2E"/>
<path d="M95.6605 122.165C95.5138 121.911 95.3539 121.672 95.1805 121.418C94.1805 119.938 92.8205 118.405 91.0072 116.845C86.5939 107.298 78.0872 105.058 68.8739 104.218C66.3299 103.685 63.5059 103.605 60.4152 103.91L60.4285 103.902C58.4552 99.6221 58.3619 92.8221 59.6552 82.3155C56.2952 89.9019 54.5619 98.0623 55.0952 107.302L55.1005 107.298C60.1005 112.698 65.1672 115.791 70.2872 116.965C74.0072 117.832 77.7672 117.672 81.5539 116.658C83.3139 120.978 85.1405 124.911 87.1272 128.338C88.0605 129.951 89.0338 131.445 90.0605 132.832C90.2605 133.111 90.4605 133.391 90.6472 133.672L95.7539 135.632C95.7539 135.632 100.247 129.711 95.6605 122.165" fill="#EDBF91"/>
<path d="M140.389 97.2753C138.135 97.2753 135.989 98.0753 134.269 99.3685C125.669 103.368 117.789 101.244 115.942 104.389C115.803 104.625 114.833 121.261 114.775 121.555C114.718 121.263 113.855 104.734 113.719 104.501C111.882 101.346 103.889 103.372 95.2819 99.3685C93.5619 98.0753 91.4152 97.2753 89.1619 97.2753C86.7352 97.2753 84.5086 98.0086 82.7886 99.2352C85.5486 101.275 88.1086 111.009 91.0019 116.849C92.1352 119.142 93.4952 120.702 95.0152 121.755C97.3619 123.409 100.055 123.875 102.829 124.062C106.935 124.329 111.562 124.329 114.775 122.555C117.989 124.329 122.615 124.329 126.722 124.062C129.495 123.875 132.189 123.409 134.535 121.755C136.055 120.702 137.415 119.142 138.549 116.849C141.442 111.009 144.002 101.275 146.762 99.2352C145.042 98.0086 142.815 97.2753 140.389 97.2753" fill="#FFCF9F"/>
<path d="M133.895 122.165C134.042 121.911 134.202 121.672 134.375 121.418C135.375 119.938 136.735 118.405 138.548 116.845C142.962 107.298 151.468 105.058 160.682 104.218C163.226 103.685 166.05 103.605 169.139 103.91L169.127 103.902C171.1 99.6221 171.194 92.8221 169.9 82.3155C173.26 89.9019 174.994 98.0623 174.46 107.302L174.454 107.298C169.454 112.698 164.387 115.791 159.268 116.965C155.548 117.832 151.788 117.672 148.002 116.658C146.242 120.978 144.415 124.911 142.428 128.338C141.495 129.951 140.522 131.445 139.495 132.832C139.295 133.111 139.095 133.391 138.908 133.672L133.802 135.632C133.802 135.632 129.308 129.711 133.895 122.165" fill="#EDBF91"/>
<path d="M142.434 128.338C141.501 129.951 140.527 131.445 139.501 132.832C135.754 137.872 133.687 143.898 133.541 150.192L133.474 153.325C127.261 155.672 121.034 156.872 114.781 156.885C108.527 156.872 102.301 155.672 96.0872 153.325L96.0205 150.192C95.8872 144.245 94.0339 138.525 90.6472 133.672C90.4605 133.392 90.2605 133.111 90.0605 132.832C89.0339 131.445 88.0605 129.951 87.1272 128.338C91.1139 126.738 93.5805 124.498 95.0205 121.751C95.0739 121.645 95.1272 121.538 95.1805 121.418C97.9672 115.751 96.6339 108.018 95.2872 99.365C96.9272 98.8317 98.3539 98.4847 99.6739 98.2582C99.7939 99.2446 99.9272 100.165 100.061 101.058V101.072C102.221 114.032 107.794 117.392 114.527 117.525H115.047C121.781 117.392 127.354 114.018 129.501 101.058C129.647 100.165 129.767 99.2317 129.887 98.2582C131.207 98.4847 132.634 98.8317 134.274 99.365C132.901 108.192 131.541 116.058 134.541 121.751C135.981 124.498 138.447 126.738 142.434 128.338" fill="#4953B8"/>
<path d="M142.434 128.338C141.501 129.951 140.527 131.445 139.501 132.832C135.754 137.872 133.687 143.898 133.541 150.192L133.474 153.325C127.261 155.672 121.034 156.872 114.781 156.885C108.527 156.872 102.301 155.672 96.0872 153.325L96.0205 150.192C95.8872 144.245 94.0339 138.525 90.6472 133.672C90.4605 133.392 90.2605 133.111 90.0605 132.832C89.0339 131.445 88.0605 129.951 87.1272 128.338C91.1139 126.738 93.5805 124.498 95.0205 121.751C95.2339 121.898 95.4472 122.045 95.6605 122.165C97.8472 123.485 100.314 123.885 102.834 124.058C106.941 124.325 111.567 124.325 114.781 122.551C117.994 124.325 122.621 124.325 126.727 124.058C129.501 123.872 132.194 123.405 134.541 121.751C135.981 124.498 138.447 126.738 142.434 128.338Z" fill="#4953B8"/>
<path d="M141.154 155.877C141.072 156.094 140.983 156.314 140.89 156.534C140.568 157.286 140.174 158.048 139.706 158.813C137.484 162.448 133.301 165.233 129.998 167C126.699 165.233 122.517 162.448 120.295 158.813C119.826 158.048 119.432 157.286 119.11 156.534C119.017 156.314 118.928 156.094 118.845 155.877C117.182 151.473 117.997 147.532 121.082 145.815C123.969 144.212 128.077 145.007 129.998 147.903C131.923 145.007 136.031 144.212 138.918 145.815C142.002 147.532 142.818 151.473 141.154 155.877" fill="#E04938"/>
<path d="M141 157.389C140.919 157.587 140.831 157.787 140.739 157.988H132.705C132.557 157.988 132.422 157.91 132.366 157.794L131.96 156.829L130.612 163.752C130.584 163.892 130.439 164 130.263 164H130.256C130.079 164 129.935 163.886 129.914 163.74L128.382 153.434L127.578 157.734C127.55 157.883 127.401 157.988 127.225 157.988H119.261C119.169 157.787 119.081 157.587 119 157.389H126.925L128.068 151.252C128.096 151.108 128.241 150.994 128.425 151C128.601 151 128.749 151.114 128.771 151.264L130.312 161.62L131.484 155.59C131.512 155.458 131.646 155.359 131.805 155.341C131.967 155.335 132.115 155.41 132.172 155.542L132.948 157.389H141" fill="white"/>
</svg>
