<svg width="233" height="224" viewBox="0 0 233 224" fill="none" xmlns="http://www.w3.org/2000/svg">
<path d="M43.3018 29.8199L112.946 95.8628L76.2154 119.799L43.3018 29.8199Z" fill="#2E384D"/>
<path d="M34.7614 49.0423L114.186 103.045L81.8101 132.563L34.7614 49.0423Z" fill="#2E384D"/>
<path d="M83.8018 14.2012L124.579 100.93L81.6229 109.938L83.8018 14.2012Z" fill="#2E384D"/>
<path d="M68.8293 29.0191L123.113 108.07L82.1763 123.854L68.8293 29.0191Z" fill="#2E384D"/>
<path d="M83.8018 14.2012L124.579 100.93L81.6229 109.938L83.8018 14.2012Z" fill="#2E384D"/>
<path d="M68.8293 29.0191L123.113 108.07L82.1763 123.854L68.8293 29.0191Z" fill="#2E384D"/>
<path d="M116.372 0.542251L136.304 94.2248L92.4159 93.2856L116.372 0.542251Z" fill="#2E384D"/>
<path d="M98.4114 11.5876L133.248 100.847L89.7812 106.963L98.4114 11.5876Z" fill="#2E384D"/>
<path d="M158.645 10.4638L143.021 104.953L102.476 88.1971L158.645 10.4638Z" fill="#2E384D"/>
<path d="M137.881 14.255L137.756 110.017L95.0294 99.9861L137.881 14.255Z" fill="#2E384D"/>
<path d="M191.444 182.198L113.556 126.021L146.743 97.4089L191.444 182.198Z" fill="#2E384D"/>
<path d="M197.326 162.012L111.363 119.068L139.484 85.5045L197.326 162.012Z" fill="#2E384D"/>
<path d="M153.405 203.069L101.347 122.548L142.708 107.901L153.405 203.069Z" fill="#2E384D"/>
<path d="M166.253 186.391L101.842 115.277L140.29 94.1841L166.253 186.391Z" fill="#2E384D"/>
<path d="M153.405 203.069L101.347 122.548L142.708 107.901L153.405 203.069Z" fill="#2E384D"/>
<path d="M166.253 186.391L101.842 115.277L140.29 94.1841L166.253 186.391Z" fill="#2E384D"/>
<path d="M122.961 220.941L90.6274 130.754L134.248 125.841L122.961 220.941Z" fill="#2E384D"/>
<path d="M139.277 207.604L92.7673 123.785L135.022 111.936L139.277 207.604Z" fill="#2E384D"/>
<path d="M79.7354 216.737L82.5305 121.016L124.961 132.224L79.7354 216.737Z" fill="#2E384D"/>
<path d="M99.804 210.215L87.0677 115.297L130.758 119.549L99.804 210.215Z" fill="#2E384D"/>
<path d="M29.3418 180.113L93.0744 113.649L116.616 146.497L29.3418 180.113Z" fill="#2E384D"/>
<path d="M48.0977 187.238L100.051 112.241L128.99 140.877L48.0977 187.238Z" fill="#2E384D"/>
<path d="M13.8628 143.49L97.9192 102.771L106.987 141.899L13.8628 143.49Z" fill="#2E384D"/>
<path d="M28.3808 156.69L104.874 103.851L120.517 140.868L28.3808 156.69Z" fill="#2E384D"/>
<path d="M13.8628 143.49L97.9192 102.771L106.987 141.899L13.8628 143.49Z" fill="#2E384D"/>
<path d="M28.3808 156.69L104.874 103.851L120.517 140.868L28.3808 156.69Z" fill="#2E384D"/>
<path d="M0.344952 114.08L91.3119 92.2434L90.7144 132.601L0.344952 114.08Z" fill="#2E384D"/>
<path d="M11.2165 130.166L97.7763 94.8099L104.035 134.515L11.2165 130.166Z" fill="#2E384D"/>
<path d="M9.6939 74.8693L101.701 85.6771L85.6942 123.556L9.6939 74.8693Z" fill="#2E384D"/>
<path d="M13.529 93.8038L106.663 90.3236L97.2125 129.955L13.529 93.8038Z" fill="#2E384D"/>
<path d="M205.617 38.6731L134.414 103.047L113.1 64.835L205.617 38.6731Z" fill="#2E384D"/>
<path d="M186.982 28.7983L127.13 103.757L99.909 69.4655L186.982 28.7983Z" fill="#2E384D"/>
<path d="M218.326 80.0247L128.495 114.231L122.586 70.9198L218.326 80.0247Z" fill="#2E384D"/>
<path d="M204.569 64.0817L121.45 112.257L108.606 70.4605L204.569 64.0817Z" fill="#2E384D"/>
<path d="M218.326 80.0247L128.495 114.231L122.586 70.9198L218.326 80.0247Z" fill="#2E384D"/>
<path d="M204.569 64.0817L121.45 112.257L108.606 70.4605L204.569 64.0817Z" fill="#2E384D"/>
<path d="M229.647 113.36L134.361 126.362L138.484 82.8454L229.647 113.36Z" fill="#2E384D"/>
<path d="M219.885 94.7228L127.95 122.846L124.975 79.2375L219.885 94.7228Z" fill="#2E384D"/>
<path d="M216.644 154.621L123.128 132.254L142.852 93.205L216.644 154.621Z" fill="#2E384D"/>
<path d="M214.352 133.725L118.438 126.659L131.583 84.9551L214.352 133.725Z" fill="#2E384D"/>
<ellipse cx="110.476" cy="114.5" rx="66.2857" ry="59.5" fill="#2E384D"/>
<path d="M82.4826 67.3872C80.2785 67.294 78.1185 66.8326 76.0697 66.0206C75.2381 65.693 74.8698 64.722 75.2193 63.9351L75.2327 63.9075C75.5823 63.1195 76.4219 62.7632 77.1316 63.0435C78.922 63.7539 80.8114 64.1564 82.7371 64.2383C83.5004 64.2726 84.1204 64.9383 84.115 65.8007V65.8315C84.111 66.6914 83.3758 67.4258 82.4826 67.3872Z" fill="#EDBF91"/>
<path d="M148.061 67.3872C150.264 67.294 152.425 66.8326 154.473 66.0206C155.305 65.693 155.673 64.722 155.323 63.9351L155.311 63.9075C154.96 63.1195 154.121 62.7632 153.412 63.0435C151.621 63.7539 149.731 64.1564 147.806 64.2383C147.044 64.2726 146.424 64.9383 146.428 65.8007L146.429 65.8315C146.433 66.6914 147.167 67.4258 148.061 67.3872Z" fill="#EDBF91"/>
<path d="M80.7232 65.7821C80.616 66.942 80.2411 68.0352 79.6519 69.0888C79.2367 69.8352 78.7145 70.5685 78.0851 71.2753C77.8575 71.5289 77.603 71.7821 77.3486 72.0488C75.1926 74.2087 72.1797 76.1685 68.8319 78.0488L68.8185 78.0623L63.3014 75.7155L68.0686 65.5155C69.9166 63.0488 71.8583 61.9956 73.8134 61.9956C74.0276 61.9956 74.2285 62.0087 74.4428 62.0352L74.5231 62.0488C74.724 62.0623 74.9114 62.1019 75.1123 62.142C75.2596 62.1821 75.4203 62.2221 75.5676 62.2753C75.7149 62.3019 75.8488 62.3555 75.9827 62.4087C76.13 62.4623 76.2639 62.5155 76.4112 62.5821L76.7058 62.7155C77.121 62.9155 77.5361 63.1555 77.9512 63.4352C78.1253 63.542 78.3128 63.6753 78.4868 63.8087C78.7145 63.9685 78.9421 64.142 79.1564 64.3289C79.4242 64.542 79.6787 64.7685 79.9331 65.0221C80.2009 65.2623 80.4687 65.5155 80.7232 65.7821Z" fill="#F7C899"/>
<path d="M149.821 65.7821C149.928 66.942 150.303 68.0352 150.892 69.0888C151.307 69.8352 151.83 70.5685 152.459 71.2753C152.687 71.5289 152.941 71.7821 153.195 72.0488C155.351 74.2087 158.364 76.1685 161.712 78.0488L161.726 78.0623L167.243 75.7155L162.475 65.5155C160.627 63.0488 158.686 61.9956 156.731 61.9956C156.516 61.9956 156.316 62.0087 156.101 62.0352L156.021 62.0488C155.82 62.0623 155.633 62.1019 155.432 62.142C155.284 62.1821 155.124 62.2221 154.976 62.2753C154.829 62.3019 154.695 62.3555 154.561 62.4087C154.414 62.4623 154.28 62.5155 154.133 62.5821L153.838 62.7155C153.423 62.9155 153.008 63.1555 152.593 63.4352C152.419 63.542 152.231 63.6753 152.057 63.8087C151.83 63.9685 151.602 64.142 151.388 64.3289C151.12 64.542 150.865 64.7685 150.611 65.0221C150.343 65.2623 150.075 65.5155 149.821 65.7821Z" fill="#F7C899"/>
<path d="M80.7232 65.7821C80.616 66.942 80.2411 68.0352 79.6519 69.0888C79.2367 69.8352 78.7145 70.5685 78.0851 71.2753C77.8575 71.5289 77.603 71.7821 77.3486 72.0488C75.1926 74.2087 72.1797 76.1685 68.8319 78.0488L68.8185 78.0623L63.3014 75.7155L68.0686 65.5155C69.9166 63.0488 71.8583 61.9956 73.8134 61.9956C74.0276 61.9956 74.2285 62.0087 74.4428 62.0352L74.5231 62.0488C74.724 62.0623 74.9114 62.1019 75.1123 62.142C75.2596 62.1821 75.4203 62.2221 75.5676 62.2753C75.7149 62.3019 75.8488 62.3555 75.9827 62.4087C76.13 62.4623 76.2639 62.5155 76.4112 62.5821L76.7058 62.7155C77.121 62.9155 77.5361 63.1555 77.9512 63.4352C78.1253 63.542 78.3128 63.6753 78.4868 63.8087C78.7145 63.9685 78.9421 64.142 79.1564 64.3289C79.4242 64.542 79.6787 64.7685 79.9331 65.0221C80.2009 65.2623 80.4687 65.5155 80.7232 65.7821Z" fill="#F7C899"/>
<path d="M149.821 65.7821C149.928 66.942 150.303 68.0352 150.892 69.0888C151.307 69.8352 151.83 70.5685 152.459 71.2753C152.687 71.5289 152.941 71.7821 153.195 72.0488C155.351 74.2087 158.364 76.1685 161.712 78.0488L161.726 78.0623L167.243 75.7155L162.475 65.5155C160.627 63.0488 158.686 61.9956 156.731 61.9956C156.516 61.9956 156.316 62.0087 156.101 62.0352L156.021 62.0488C155.82 62.0623 155.633 62.1019 155.432 62.142C155.284 62.1821 155.124 62.2221 154.976 62.2753C154.829 62.3019 154.695 62.3555 154.561 62.4087C154.414 62.4623 154.28 62.5155 154.133 62.5821L153.838 62.7155C153.423 62.9155 153.008 63.1555 152.593 63.4352C152.419 63.542 152.231 63.6753 152.057 63.8087C151.83 63.9685 151.602 64.142 151.388 64.3289C151.12 64.542 150.865 64.7685 150.611 65.0221C150.343 65.2623 150.075 65.5155 149.821 65.7821Z" fill="#F7C899"/>
<path d="M80.723 65.7822C80.6159 66.942 80.2409 68.0352 79.6517 69.0888C79.2366 69.8352 78.7144 70.5686 78.085 71.2754C77.8573 71.529 77.6029 71.7822 77.3485 72.0488C75.1925 74.2087 72.1795 76.1686 68.8318 78.0488C67.0213 73.8472 70.6583 71.1196 73.5856 67.8488C74.6435 66.4488 75.7148 65.5019 76.8128 64.9555C77.5895 64.5555 78.3662 64.3555 79.1563 64.329C79.4241 64.542 79.6785 64.7686 79.933 65.0222C80.2008 65.2623 80.4686 65.5155 80.723 65.7822Z" fill="#EDBF91"/>
<path d="M149.821 65.7822C149.928 66.942 150.303 68.0352 150.892 69.0888C151.307 69.8352 151.83 70.5686 152.459 71.2754C152.687 71.529 152.941 71.7822 153.195 72.0488C155.351 74.2087 158.364 76.1686 161.712 78.0488C163.521 73.8472 159.884 71.1196 156.958 67.8488C155.9 66.4488 154.829 65.5019 153.731 64.9555C152.954 64.5555 152.178 64.3555 151.388 64.329C151.12 64.542 150.865 64.7686 150.611 65.0222C150.343 65.2623 150.075 65.5155 149.821 65.7822Z" fill="#EDBF91"/>
<path d="M175.216 107.298C167.516 113.432 159.521 118.751 148.648 116.658C146.88 120.978 145.046 124.911 143.05 128.338C142.113 129.951 141.135 131.445 140.104 132.832C136.341 137.872 134.266 143.898 134.119 150.192L134.052 153.325C127.811 155.672 121.558 156.872 115.277 156.885C108.997 156.872 102.743 155.672 96.5031 153.325L96.4361 150.192C96.3022 144.245 94.4409 138.525 91.0395 133.672C90.8521 133.392 90.6512 133.111 90.4503 132.832C89.4192 131.445 88.4417 129.951 87.5043 128.338C85.509 124.911 83.6745 120.978 81.9068 116.658C77.7288 117.458 73.9793 117.178 70.4977 116.165C64.9404 114.538 60.0794 111.072 55.339 107.298C54.8034 98.0582 56.5442 89.8983 59.9187 82.3113V82.2847C60.9097 80.0446 62.0479 77.8582 63.3067 75.7113L68.8238 78.0582C68.8238 88.165 71.6225 92.565 69.2121 98.4983C70.6316 95.8718 74.0999 94.4582 77.6753 95.2718C79.9919 95.8051 81.8667 97.165 82.9246 98.8582C83.0049 98.9779 83.0852 99.0983 83.1522 99.2317C84.8796 98.0051 87.116 97.2718 89.5531 97.2718C91.8162 97.2718 93.9722 98.0718 95.6996 99.365C97.3467 98.8317 98.7796 98.4847 100.105 98.2582C102.556 97.8446 104.591 97.8847 106.68 98.0718C109.184 98.3113 111.782 98.7779 115.277 98.9779C118.772 98.7779 121.357 98.3113 123.861 98.0718H123.874C125.963 97.8847 127.999 97.8446 130.449 98.2582C131.775 98.4847 133.208 98.8317 134.855 99.365C136.582 98.0718 138.738 97.2718 141.002 97.2718C143.439 97.2718 145.675 98.0051 147.402 99.2317C147.469 99.0983 147.55 98.9779 147.63 98.8582C148.688 97.165 150.563 95.8051 152.879 95.2718C156.455 94.4582 159.923 95.8718 161.343 98.4983C158.932 92.565 161.731 88.165 161.731 78.0582L167.248 75.7113C168.507 77.8582 169.645 80.0446 170.636 82.2847V82.3113C174.01 89.8983 175.751 98.0582 175.216 107.298Z" fill="#F7C899"/>
<path d="M106.679 103.667V89.7221H123.864V103.667H106.679Z" fill="#F7C899"/>
<path d="M82.9192 98.8622C82.9992 98.982 83.0792 99.1018 83.1459 99.2351C83.0125 99.1288 82.9325 99.0086 82.9192 98.8622Z" fill="#F5C08C"/>
<path d="M147.624 98.8622C147.544 98.982 147.464 99.1018 147.397 99.2351C147.53 99.1288 147.61 99.0086 147.624 98.8622Z" fill="#F5C08C"/>
<path d="M76.367 75.3701L76.3456 75.3847C75.7658 75.7805 74.973 75.6327 74.5753 75.0555L70.6879 69.2847L72.8103 67.8384L76.6978 73.6076C77.0955 74.1847 76.9468 74.9743 76.367 75.3701Z" fill="#F7C899"/>
<path d="M154.176 75.3701L154.197 75.3847C154.777 75.7805 155.57 75.6327 155.967 75.0555L159.855 69.2847L157.732 67.8384L153.845 73.6076C153.449 74.1847 153.596 74.9743 154.176 75.3701Z" fill="#F7C899"/>
<path d="M76.8209 73.6076L76.8343 73.6289C77.2106 74.2206 77.0847 74.9717 76.5544 75.306L74.5926 76.5409C74.0623 76.8753 73.3272 76.666 72.9509 76.0742L72.9375 76.0529C72.5612 75.4608 72.6871 74.7102 73.2174 74.3753L75.1792 73.1409C75.7108 72.806 76.4446 73.0154 76.8209 73.6076Z" fill="#F7C899"/>
<path d="M153.722 73.6076L153.708 73.6289C153.332 74.2206 153.458 74.9717 153.988 75.306L155.95 76.5409C156.48 76.8753 157.215 76.666 157.592 76.0742L157.605 76.0529C157.981 75.4608 157.855 74.7102 157.325 74.3753L155.363 73.1409C154.833 72.806 154.098 73.0154 153.722 73.6076Z" fill="#F7C899"/>
<path d="M74.7052 76.4726L74.6878 76.4914C74.195 76.993 73.3889 77.0007 72.8867 76.5111L71.8623 75.5753C71.3601 75.0862 71.3508 74.2835 71.8435 73.7821L71.861 73.7649C72.3537 73.2633 73.1599 73.2554 73.662 73.7445L74.6865 74.6805C75.1886 75.1701 75.198 75.9726 74.7052 76.4726Z" fill="#F7C899"/>
<path d="M155.837 76.4726L155.855 76.4914C156.348 76.993 157.154 77.0007 157.656 76.5111L158.68 75.5753C159.184 75.0862 159.192 74.2835 158.7 73.7821L158.682 73.7649C158.19 73.2633 157.384 73.2554 156.881 73.7445L155.856 74.6805C155.354 75.1701 155.346 75.9726 155.837 76.4726Z" fill="#F7C899"/>
<path d="M79.0078 74.5179L78.985 74.534C78.361 74.958 77.5107 74.8007 77.0835 74.1793L72.6658 67.6528L74.9436 66.0981L79.3626 72.6257C79.7885 73.246 79.6305 74.0924 79.0078 74.5179Z" fill="#F7C899"/>
<path d="M151.536 74.5179L151.559 74.534C152.182 74.958 153.032 74.8007 153.459 74.1793L157.878 67.6528L155.599 66.0981L151.181 72.6257C150.754 73.246 150.914 74.0924 151.536 74.5179Z" fill="#F7C899"/>
<path d="M81.1689 73.1289L81.1462 73.1445C80.5235 73.5701 79.6732 73.4112 79.246 72.7915L74.618 65.8836L76.8972 64.3289L81.5238 71.2368C81.951 71.8565 81.7916 72.7051 81.1689 73.1289Z" fill="#F7C899"/>
<path d="M149.374 73.1289L149.396 73.1445C150.019 73.5701 150.871 73.4112 151.297 72.7915L155.925 65.8836L153.647 64.3289L149.019 71.2368C148.592 71.8565 148.751 72.7051 149.374 73.1289Z" fill="#F7C899"/>
<path d="M82.7183 71.0887L82.6916 71.1018C82.0756 71.5289 81.2185 71.3685 80.79 70.7554L79.6518 69.0887L76.8129 64.9554L76.4647 64.4487L77.9511 63.4351C78.1252 63.5419 78.3127 63.6753 78.4868 63.8086C78.7144 63.9685 78.9421 64.1419 79.1563 64.3289C79.4241 64.5419 79.6786 64.7685 79.933 65.0221C80.2008 65.2622 80.4687 65.5154 80.7231 65.7821L83.0799 69.1955C83.495 69.8086 83.3477 70.6622 82.7183 71.0887Z" fill="#F7C899"/>
<path d="M147.826 71.0887L147.852 71.1018C148.468 71.5289 149.325 71.3685 149.754 70.7554L150.892 69.0887L153.731 64.9554L154.079 64.4487L152.593 63.4351C152.419 63.5419 152.231 63.6753 152.057 63.8086C151.829 63.9685 151.602 64.1419 151.388 64.3289C151.12 64.5419 150.865 64.7685 150.611 65.0221C150.343 65.2622 150.075 65.5154 149.821 65.7821L147.464 69.1955C147.049 69.8086 147.196 70.6622 147.826 71.0887Z" fill="#F7C899"/>
<path d="M115.213 98.0983H115.287L115.336 98.0994C118.859 98.1128 120.395 97.5942 122.262 95.4555C123.086 94.5128 123.972 93.2582 125.122 91.5899C126.096 90.1806 126.859 88.0702 127.44 85.4008L127.656 85.4675C127.897 85.5103 128.15 85.4795 128.391 85.3863C129.421 85.0035 129.744 83.5514 130.056 81.6718C130.443 79.3514 130.344 77.2836 129.054 77.0686C128.351 76.9514 127.625 77.4087 127.044 78.2316L127.068 71.9822C127.079 69.2436 124.863 67.018 122.112 67.0087L108.681 66.9566C105.93 66.9462 103.006 68.5754 102.995 71.3139L103.129 76.9155C102.554 76.0874 102.364 76.8514 101.66 76.9634C100.369 77.1675 100.143 79.2352 100.512 81.5566C100.81 83.4394 101.231 84.8942 102.259 85.2847C102.5 85.3806 102.751 85.4128 102.992 85.3718L103.209 85.3076C103.769 87.9806 104.516 90.0983 105.478 91.5139C106.616 93.1915 107.492 94.453 108.309 95.4019C110.158 97.554 111.691 98.0847 115.213 98.0983Z" fill="#FFCF9F"/>
<path d="M126.553 69.8231C126.739 70.2206 126.89 70.6393 126.964 71.0873C127.012 71.3597 127.04 71.6326 127.04 71.9138L126.978 77.3007L126.917 78.8289L127.189 78.8263C127.519 78.3274 127.888 77.7075 128.285 77.3315H128.295C128.53 77.0955 128.798 77.0315 129.054 77.0685L129.448 71.605C129.496 70.3274 129.299 69.0649 128.889 67.8753C128.133 68.693 127.351 69.3263 126.553 69.8231Z" fill="#8F5329"/>
<path d="M117.982 60.2221C118.726 59.5581 118.043 57.818 117.887 58.0154C116.334 59.9805 114.079 59.3154 108.587 61.0128H108.578C106.913 61.6169 105.559 62.5805 104.203 64.005C103.985 64.23 103.785 64.4633 103.587 64.7076C102.04 66.6384 101.19 69.0701 101.274 71.5717L101.659 76.9608C101.961 76.9154 102.273 77.0393 102.575 77.3034C102.932 77.6154 103.26 78.1248 103.521 78.8018C103.568 78.9154 103.267 73.0898 103.907 69.7674C107.027 62.1836 119.699 81.0726 132.517 65.4169C132.617 65.2778 130.804 65.2138 130.913 65.0742C131.922 63.7753 132.319 62.8742 133.153 60.7488C133.164 60.7513 131.561 62.766 127.24 62.442C127.023 62.4258 128.04 61.1488 127.811 61.1914C125.566 61.6138 123.752 61.5529 121.99 60.9753L121.988 60.9769C119.508 60.0941 117.982 60.2221 117.982 60.2221Z" fill="#A15E2E"/>
<path d="M96.0745 122.165C95.9272 121.911 95.7666 121.672 95.5925 121.418C94.5881 119.938 93.2223 118.405 91.4011 116.845C86.9687 107.298 78.4252 105.058 69.172 104.218C66.6169 103.685 63.7807 103.605 60.6767 103.91L60.6901 103.902C58.7082 99.6221 58.6145 92.8221 59.9134 82.3155C56.5388 89.9019 54.798 98.0623 55.3336 107.302L55.339 107.298C60.3606 112.698 65.4492 115.791 70.5914 116.965C74.3275 117.832 78.1038 117.672 81.9068 116.658C83.6745 120.978 85.509 124.911 87.5043 128.338C88.4417 129.951 89.4192 131.445 90.4503 132.832C90.6512 133.111 90.852 133.391 91.0395 133.672L96.1683 135.632C96.1683 135.632 100.681 129.711 96.0745 122.165Z" fill="#EDBF91"/>
<path d="M140.996 97.2753C138.733 97.2753 136.577 98.0753 134.85 99.3685C126.213 103.368 118.298 101.244 116.444 104.389C116.305 104.625 115.33 121.261 115.272 121.555C115.215 121.263 114.348 104.734 114.212 104.501C112.366 101.346 104.338 103.372 95.6944 99.3685C93.9669 98.0753 91.811 97.2753 89.5479 97.2753C87.1107 97.2753 84.8744 98.0086 83.147 99.2352C85.9189 101.275 88.49 111.009 91.3959 116.849C92.5341 119.142 93.9 120.702 95.4266 121.755C97.7834 123.409 100.488 123.875 103.274 124.062C107.398 124.329 112.045 124.329 115.272 122.555C118.499 124.329 123.146 124.329 127.27 124.062C130.056 123.875 132.761 123.409 135.118 121.755C136.644 120.702 138.01 119.142 139.148 116.849C142.054 111.009 144.625 101.275 147.397 99.2352C145.67 98.0086 143.433 97.2753 140.996 97.2753Z" fill="#FFCF9F"/>
<path d="M134.475 122.165C134.622 121.911 134.783 121.672 134.957 121.418C135.961 119.938 137.327 118.405 139.148 116.845C143.581 107.298 152.124 105.058 161.377 104.218C163.932 103.685 166.769 103.605 169.871 103.91L169.859 103.902C171.841 99.6221 171.935 92.8221 170.636 82.3155C174.01 89.9019 175.751 98.0623 175.216 107.302L175.209 107.298C170.187 112.698 165.099 115.791 159.958 116.965C156.222 117.832 152.446 117.672 148.642 116.658C146.875 120.978 145.04 124.911 143.045 128.338C142.108 129.951 141.13 131.445 140.099 132.832C139.898 133.111 139.697 133.391 139.51 133.672L134.381 135.632C134.381 135.632 129.868 129.711 134.475 122.165Z" fill="#EDBF91"/>
<path d="M143.05 128.338C142.113 129.951 141.135 131.445 140.104 132.832C136.341 137.872 134.266 143.898 134.119 150.192L134.052 153.325C127.811 155.672 121.558 156.872 115.277 156.885C108.997 156.872 102.743 155.672 96.5031 153.325L96.4361 150.192C96.3022 144.245 94.4408 138.525 91.0395 133.672C90.852 133.392 90.6512 133.111 90.4503 132.832C89.4192 131.445 88.4416 129.951 87.5043 128.338C91.5082 126.738 93.9855 124.498 95.4318 121.751C95.4853 121.645 95.5389 121.538 95.5925 121.418C98.3912 115.751 97.0521 108.018 95.6996 99.365C97.3467 98.8317 98.7795 98.4847 100.105 98.2582C100.226 99.2446 100.36 100.165 100.494 101.058V101.072C102.663 114.032 108.26 117.392 115.023 117.525H115.545C122.308 117.392 127.905 114.018 130.061 101.058C130.208 100.165 130.329 99.2317 130.449 98.2582C131.775 98.4847 133.208 98.8317 134.855 99.365C133.476 108.192 132.11 116.058 135.123 121.751C136.569 124.498 139.046 126.738 143.05 128.338Z" fill="#4953B8"/>
<path d="M143.05 128.338C142.113 129.951 141.135 131.445 140.104 132.832C136.341 137.872 134.266 143.898 134.119 150.192L134.052 153.325C127.811 155.672 121.558 156.872 115.277 156.885C108.997 156.872 102.743 155.672 96.5031 153.325L96.4361 150.192C96.3022 144.245 94.4408 138.525 91.0395 133.672C90.852 133.392 90.6512 133.111 90.4503 132.832C89.4192 131.445 88.4416 129.951 87.5043 128.338C91.5082 126.738 93.9855 124.498 95.4318 121.751C95.646 121.898 95.8603 122.045 96.0745 122.165C98.2707 123.485 100.748 123.885 103.279 124.058C107.403 124.325 112.05 124.325 115.277 122.551C118.505 124.325 123.151 124.325 127.276 124.058C130.061 123.872 132.766 123.405 135.123 121.751C136.569 124.498 139.046 126.738 143.05 128.338Z" fill="#4953B8"/>
<path d="M141.765 155.877C141.683 156.094 141.593 156.314 141.5 156.534C141.176 157.286 140.781 158.048 140.31 158.813C138.079 162.448 133.878 165.233 130.561 167C127.248 165.233 123.047 162.448 120.815 158.813C120.344 158.048 119.949 157.286 119.626 156.534C119.532 156.314 119.443 156.094 119.36 155.877C117.689 151.473 118.508 147.532 121.606 145.815C124.506 144.212 128.631 145.007 130.561 147.903C132.494 145.007 136.619 144.212 139.519 145.815C142.617 147.532 143.437 151.473 141.765 155.877Z" fill="#E04938"/>
<path d="M141.61 157.389C141.529 157.587 141.44 157.787 141.348 157.988H133.279C133.13 157.988 132.996 157.91 132.939 157.794L132.531 156.829L131.178 163.752C131.149 163.892 131.004 164 130.827 164H130.82C130.642 164 130.497 163.886 130.476 163.74L128.938 153.434L128.13 157.734C128.102 157.883 127.953 157.988 127.776 157.988H119.777C119.685 157.787 119.597 157.587 119.515 157.389H127.475L128.623 151.252C128.651 151.108 128.796 150.994 128.981 151C129.158 151 129.307 151.114 129.328 151.264L130.877 161.62L132.053 155.59C132.081 155.458 132.216 155.359 132.376 155.341C132.538 155.335 132.687 155.41 132.744 155.542L133.524 157.389H141.61Z" fill="white"/>
</svg>
