<svg width="673" height="489" viewBox="0 0 673 489" fill="none" xmlns="http://www.w3.org/2000/svg">
<path d="M482.45 451.156C419.031 476.257 264.45 503.509 139.669 457.606C88.2578 448.055 20.019 396.399 115.265 339.138C80.0888 238.909 -129.772 139.646 238.863 89.2733C487.307 55.3243 487.715 -3.91336 605.229 101.424C716.649 201.298 591.853 409.404 482.45 451.156Z" fill="#BFC3EC" stroke="#BFC3EC" stroke-width="4"/>
<g clip-path="url(#clip0)">
<path fill-rule="evenodd" clip-rule="evenodd" d="M166.056 346.037C158.181 346.037 151.796 352.327 151.796 360.085C151.796 367.843 158.181 374.133 166.056 374.133C173.931 374.133 180.315 367.843 180.315 360.085C180.315 352.327 173.931 346.037 166.056 346.037ZM155.088 319.672C151.089 319.672 147.848 322.865 147.848 326.803C147.848 330.742 151.089 333.935 155.088 333.935C159.085 333.935 162.327 330.742 162.327 326.803C162.327 322.865 159.085 319.672 155.088 319.672ZM507.622 62.9267C498.898 62.9267 491.826 69.8935 491.826 78.4878C491.826 87.0812 498.898 94.0471 507.622 94.0471C516.345 94.0471 523.416 87.0812 523.416 78.4878C523.416 69.8935 516.345 62.9267 507.622 62.9267ZM358.361 50.8257C468.082 50.8257 557.029 138.45 557.029 246.541C557.029 303.056 532.705 353.967 493.819 389.694H222.904C184.017 353.967 159.693 303.056 159.693 246.541C159.693 138.45 248.639 50.8257 358.361 50.8257Z" fill="#3A4295"/>
<path fill-rule="evenodd" clip-rule="evenodd" d="M291.592 54.571H460.345C468.596 54.571 474.858 61.2205 474.262 69.348L451.956 373.691C451.36 381.819 444.123 388.468 435.873 388.468H267.119C258.869 388.468 252.606 381.819 253.202 373.691L275.509 69.348C276.105 61.2205 283.342 54.571 291.592 54.571Z" fill="#B7233C"/>
<path fill-rule="evenodd" clip-rule="evenodd" d="M291.593 54.571H460.345C468.596 54.571 474.858 61.2205 474.262 69.3479L468.096 153.47C467.44 162.443 456.587 161.452 457.192 152.275H269.431L275.509 69.3479C276.105 61.2205 283.343 54.571 291.593 54.571Z" fill="#E83F5B"/>
<path fill-rule="evenodd" clip-rule="evenodd" d="M280.667 54.571H449.42C457.671 54.571 463.934 61.2205 463.337 69.348L441.032 373.691C440.436 381.819 433.198 388.468 424.948 388.468H256.195C247.945 388.468 241.682 381.819 242.278 373.691L264.585 69.348C265.18 61.2205 272.418 54.571 280.667 54.571Z" fill="white"/>
<path fill-rule="evenodd" clip-rule="evenodd" d="M457.176 153.419L441.031 373.69C440.436 381.817 433.198 388.468 424.948 388.468H256.195C247.946 388.468 241.682 381.819 242.278 373.69L258.422 153.419H457.176" fill="#E2E2E0"/>
<path fill-rule="evenodd" clip-rule="evenodd" d="M445.735 309.517L441.031 373.69C440.436 381.817 433.198 388.468 424.948 388.468H256.195C247.946 388.468 241.682 381.819 242.278 373.69L246.981 309.517H445.735Z" fill="#D8CBCB"/>
<path fill-rule="evenodd" clip-rule="evenodd" d="M280.668 62.6048C276.678 62.6048 273.016 66.01 272.735 69.9181L253.422 337.288C253.174 340.732 255.704 343.462 259.221 343.462H427.973C431.963 343.462 435.625 340.056 435.907 336.149L455.219 68.7786C455.468 65.3346 452.936 62.6048 449.42 62.6048H403.209C402.02 68.7044 395.981 73.6954 389.788 73.6954H333.956C327.764 73.6954 323.672 68.7044 324.862 62.6048H280.668Z" fill="#7D78A9"/>
<path fill-rule="evenodd" clip-rule="evenodd" d="M282.679 90.4313H325.381C328.388 90.4313 330.673 92.8543 330.458 95.8175L327.408 137.884C327.194 140.848 324.557 143.271 321.549 143.271H278.848C275.84 143.271 273.556 140.848 273.77 137.884L276.82 95.8175C277.035 92.8543 279.671 90.4313 282.679 90.4313Z" fill="#4C4195"/>
<path fill-rule="evenodd" clip-rule="evenodd" d="M341.252 90.4313H383.953C386.961 90.4313 389.246 92.8543 389.032 95.8175L385.981 137.884C385.766 140.848 383.13 143.271 380.123 143.271H337.421C334.413 143.271 332.129 140.848 332.344 137.884L335.394 95.8175C335.608 92.8543 338.244 90.4313 341.252 90.4313Z" fill="#4C4195"/>
<path fill-rule="evenodd" clip-rule="evenodd" d="M399.825 90.4313H442.527C445.534 90.4313 447.819 92.8543 447.603 95.8175L444.554 137.884C444.339 140.848 441.703 143.271 438.695 143.271H395.993C392.986 143.271 390.702 140.848 390.916 137.884L393.967 95.8175C394.181 92.8543 396.817 90.4313 399.825 90.4313Z" fill="#4C4195"/>
<path fill-rule="evenodd" clip-rule="evenodd" d="M278.399 149.457C312.158 149.457 345.917 149.457 379.674 149.457C382.681 149.457 384.966 151.881 384.751 154.844L381.702 196.911C381.486 199.873 378.851 202.298 375.843 202.298C342.085 202.298 308.326 202.298 274.569 202.298C271.561 202.298 269.276 199.873 269.492 196.911L272.542 154.844C272.757 151.881 275.392 149.457 278.399 149.457Z" fill="#4C4195"/>
<path fill-rule="evenodd" clip-rule="evenodd" d="M395.545 149.457H438.247C441.256 149.457 443.539 151.881 443.325 154.844L440.274 196.911C440.06 199.874 437.424 202.298 434.416 202.298H391.715C388.706 202.298 386.422 199.874 386.638 196.911L389.688 154.844C389.902 151.881 392.538 149.457 395.545 149.457Z" fill="#4C4195"/>
<path fill-rule="evenodd" clip-rule="evenodd" d="M351.225 60.9562H366.143C368.24 60.9562 369.954 62.6455 369.954 64.7115C369.954 66.7765 368.24 68.4658 366.143 68.4658H351.225C349.129 68.4658 347.414 66.7765 347.414 64.7115C347.414 62.6455 349.129 60.9562 351.225 60.9562ZM339.241 60.9562C341.347 60.9562 343.053 62.6376 343.053 64.7115C343.053 66.7853 341.347 68.4658 339.241 68.4658C337.137 68.4658 335.43 66.7853 335.43 64.7115C335.43 62.6376 337.137 60.9562 339.241 60.9562Z" fill="#3C3478"/>
<path fill-rule="evenodd" clip-rule="evenodd" d="M341.042 379.552C349.108 379.552 355.686 373.072 355.686 365.126C355.686 357.181 349.108 350.7 341.042 350.7C332.978 350.7 326.4 357.181 326.4 365.126C326.4 373.072 332.978 379.552 341.042 379.552Z" fill="#3C3478"/>
<path fill-rule="evenodd" clip-rule="evenodd" d="M231.717 81.0267H239.254V83.478H231.717V81.0267ZM231.717 75.1923H242.784V77.6427H231.717V75.1923Z" fill="#3C3478"/>
<path fill-rule="evenodd" clip-rule="evenodd" d="M133.908 242.955C117.249 232.303 115.707 167.2 128.616 153.083C123.422 155.545 120.127 162.325 118.314 171.139C115.745 183.625 116.151 200.169 118.34 214.366C120.522 228.527 124.465 240.331 128.981 243.395C130.557 244.464 132.217 244.415 133.908 242.955ZM135.684 150.589C135.684 150.589 150.333 130.896 176.721 138.576C203.11 146.255 207.445 222.688 199.842 242.346C192.239 262.005 172.333 250.02 172.333 250.02C172.333 250.02 146.481 257.637 139.798 244.387C137.831 244.612 136.012 244.195 134.342 243.236C132.428 244.966 130.524 245.033 128.7 243.797C124.066 240.654 120.049 228.721 117.848 214.439C115.652 200.195 115.247 183.588 117.828 171.043C119.809 161.413 123.55 154.163 129.589 152.15C131.374 150.633 133.404 150.025 135.684 150.589" fill="#3C3478"/>
<path fill-rule="evenodd" clip-rule="evenodd" d="M204.345 232.945C204.345 232.945 208.458 248.992 189.701 255.312C189.701 255.312 213.394 257.096 204.345 232.945ZM202.817 225.773C202.306 232.78 201.292 238.597 199.842 242.346C192.238 262.005 172.333 250.02 172.333 250.02C151.721 256.09 143.025 244.414 139.711 228.44C145.751 237.999 153.913 237.236 153.913 237.236C137.413 232.614 138.101 199.533 138.127 198.423C138.299 194.781 138.546 191.317 138.796 188.183L167.075 168.025L175.77 156.597C196.857 170.789 196.132 210.365 184.439 229.943C184.439 229.943 200.594 217.538 196.841 186.595C200.651 196.704 203.303 209.632 202.817 225.773Z" fill="#1D1D40"/>
<path fill-rule="evenodd" clip-rule="evenodd" d="M150.546 142.583C151.79 142.583 152.8 143.219 152.8 144.002C152.8 144.785 151.79 145.421 150.546 145.421C149.301 145.421 148.292 144.785 148.292 144.002C148.292 143.219 149.301 142.583 150.546 142.583ZM162.128 138.293C166.454 138.293 169.959 139.272 169.959 140.478C169.959 141.685 166.454 142.663 162.128 142.663C157.805 142.663 154.299 141.685 154.299 140.478C154.299 139.272 157.805 138.293 162.128 138.293Z" fill="#6858AC"/>
<path fill-rule="evenodd" clip-rule="evenodd" d="M133.291 312.048L132.444 323.665C132.373 324.639 135.665 324.365 136.544 319.742C137.422 315.119 138.477 308.62 141.674 304.839C141.674 304.839 133.687 307.521 133.291 312.048Z" fill="#F3637D"/>
<path fill-rule="evenodd" clip-rule="evenodd" d="M183.393 210.083L176.318 213.925L161.817 245.921C161.817 245.921 149.962 272.224 144.294 291.945L152.923 296.463C157.467 289.189 170.845 268.778 173.133 257.879C173.133 257.879 189.074 233.126 198.243 220.725C209.276 211.386 183.393 210.083 183.393 210.083" fill="#F7948D"/>
<path fill-rule="evenodd" clip-rule="evenodd" d="M183.393 210.083L176.318 213.926L167.897 232.504C172.233 235.348 177.92 240.771 178.391 249.803C183.859 241.468 192.418 228.604 198.242 220.725C209.276 211.387 183.393 210.083 183.393 210.083" fill="#F3637D"/>
<path fill-rule="evenodd" clip-rule="evenodd" d="M149.366 288.352L144.294 291.944L132.053 301.263L137.446 309.037C137.446 309.037 149.657 304.565 152.923 296.463L149.366 288.352" fill="#F7948D"/>
<path fill-rule="evenodd" clip-rule="evenodd" d="M136.498 301.091L132.053 301.263C132.053 301.263 131.25 313.975 126.855 319.539C127.339 321.383 130.644 320.799 132.253 318.647C133.863 316.494 137.446 309.037 137.446 309.037L136.498 301.091" fill="#F7948D"/>
<path fill-rule="evenodd" clip-rule="evenodd" d="M140.744 303.743C140.744 303.743 143.338 306.334 143.001 308.411C142.664 310.487 139.635 315.628 144.309 316.562L151.104 298.971L143.115 299.626L140.744 303.743Z" fill="#F7948D"/>
<path fill-rule="evenodd" clip-rule="evenodd" d="M273.585 84.4803L283.374 77.9493C284.195 77.4012 285.6 80.3467 281.975 83.408C278.35 86.4702 273.165 90.6197 271.44 95.2368C271.44 95.2368 269.805 87.0819 273.585 84.4803Z" fill="#F3637D"/>
<path fill-rule="evenodd" clip-rule="evenodd" d="M209 178.209L208.841 170.25L229.717 141.881C229.717 141.881 246.912 118.614 261.414 103.92L269.701 109.022C264.936 114.737 255.305 137.237 245.775 146.217C245.775 146.217 231.225 168.678 226.648 182.064C223.955 196.147 209 178.209 209 178.209Z" fill="#F7948D"/>
<path fill-rule="evenodd" clip-rule="evenodd" d="M209 178.209L208.841 170.25L222.653 151.482C224.657 155.188 229.144 158.743 239.15 157.023C234.683 164.625 229.162 174.713 226.648 182.064C223.955 196.147 209 178.209 209 178.209" fill="#F3637D"/>
<path fill-rule="evenodd" clip-rule="evenodd" d="M260.792 110.043L261.414 103.919L263.486 88.8172L273.015 89.5315C273.015 89.5315 275.191 102.186 269.701 109.022L260.792 110.043" fill="#F7948D"/>
<path fill-rule="evenodd" clip-rule="evenodd" d="M265.558 92.6943L263.486 88.8171C263.486 88.8171 274.259 81.776 276.952 75.245C278.817 74.7341 279.955 77.8467 278.868 80.2962C277.78 82.7458 273.016 89.5314 273.016 89.5314L265.558 92.6943" fill="#F7948D"/>
<path fill-rule="evenodd" clip-rule="evenodd" d="M270.012 94.992C270.012 94.992 273.585 95.9096 275.243 94.5836C276.9 93.2567 279.903 88.103 283.063 91.624L270.996 106.217L267.578 99.0734L270.012 94.992Z" fill="#F7948D"/>
<path fill-rule="evenodd" clip-rule="evenodd" d="M373.958 356.586C373.958 356.586 378.517 368.423 382.867 381.893C382.867 381.893 385.456 388.322 378.413 388.423C371.369 388.526 357.488 388.423 357.488 388.423C357.488 388.423 354.9 382.812 361.218 382.812C361.218 382.812 364.428 374.343 360.286 363.117L373.958 356.586Z" fill="#F7948D"/>
<path fill-rule="evenodd" clip-rule="evenodd" d="M185.641 367.607C185.641 367.607 183.084 370.921 183.81 374.696C184.535 378.472 190.199 382.811 183.155 387.301H135.195C132.681 379.952 139.756 377.293 144.622 379.188C153.599 372.607 162.575 366.025 171.553 359.443L185.641 367.607Z" fill="#F7948D"/>
<path fill-rule="evenodd" clip-rule="evenodd" d="M208.437 170.57L221.291 153.333L235.069 164.186C235.069 164.186 229.852 174.753 226.515 182.512C233.66 186.9 241.849 191.186 248.827 192.905C265.4 196.987 330.452 214.539 341.225 279.031C341.225 279.031 367.328 305.563 373.958 356.586L360.286 363.117C360.286 363.117 330.867 315.767 323.823 298.216L281.974 250.867C281.974 250.867 264.987 285.97 239.297 300.257C239.297 300.257 234.118 304.339 231.425 314.34C228.732 324.34 185.641 367.607 185.641 367.607L171.553 359.443C171.553 359.443 203.457 310.258 211.329 292.706C221.641 275.49 231.46 259.732 245.72 244.948C245.72 244.948 229.56 239.438 223.553 235.152C219.613 232.342 206.326 232.427 193.846 227.355L185.028 241.891L168.643 230.861L176.416 213.604L181.083 198.211L192.606 183.096L208.437 170.57" fill="#4CD62B"/>
<path fill-rule="evenodd" clip-rule="evenodd" d="M178.857 205.552L181.083 198.211L192.606 183.096L196.315 180.162C201.165 182.77 204.435 187.688 204.435 193.325C204.435 201.692 197.235 208.474 188.352 208.474C184.8 208.474 181.519 207.388 178.857 205.552" fill="white"/>
<path fill-rule="evenodd" clip-rule="evenodd" d="M284.914 206.159C308.389 218.236 334.715 240.062 341.225 279.031C341.225 279.031 367.328 305.563 373.958 356.586L360.286 363.117C360.286 363.117 330.866 315.767 323.823 298.216L281.973 250.867C281.973 250.867 264.987 285.97 239.297 300.257C239.297 300.257 234.118 304.339 231.425 314.34C228.732 324.34 185.641 367.607 185.641 367.607L171.553 359.443C171.553 359.443 203.457 310.258 211.329 292.706C221.641 275.49 231.46 259.732 245.719 244.948C274.888 237.524 284.464 215.846 284.914 206.159Z" fill="#2E384D"/>
<path fill-rule="evenodd" clip-rule="evenodd" d="M284.914 206.16C285.279 206.347 285.645 206.537 286.011 206.729L286.017 206.732C286.381 206.923 286.745 207.118 287.111 207.313L287.123 207.32C287.487 207.515 287.849 207.713 288.214 207.912L288.232 207.922C288.594 208.121 288.956 208.323 289.318 208.525C289.591 208.678 289.864 208.834 290.138 208.989L290.426 209.154L290.458 209.171C290.817 209.377 291.176 209.586 291.535 209.796L291.548 209.805C291.911 210.016 292.272 210.231 292.634 210.449L292.646 210.455C292.958 210.642 293.271 210.832 293.583 211.023L293.765 211.133C294.016 211.288 294.269 211.445 294.521 211.602L294.886 211.829C295.198 212.026 295.51 212.224 295.822 212.424L295.983 212.525C297.022 213.192 298.058 213.88 299.092 214.589L299.319 214.744C299.658 214.977 299.997 215.213 300.335 215.451L300.407 215.502C318.402 228.189 335.188 247.457 340.779 276.564L340.779 276.572C340.893 277.163 341.001 277.759 341.105 278.358L341.107 278.363C341.146 278.586 341.187 278.807 341.225 279.031C341.225 279.031 367.328 305.564 373.958 356.586L371.334 357.84C372.027 313.518 339.26 283.799 336.938 281.749L336.848 281.823C336.848 281.823 325.125 230.26 283.897 211.818C284.516 209.685 284.841 207.758 284.914 206.16" fill="#2E384D"/>
<path fill-rule="evenodd" clip-rule="evenodd" d="M281.974 250.867C281.974 250.867 276.813 261.531 267.879 273.495C273.558 259.11 275.59 243.484 275.59 243.484L281.974 250.867" fill="#3E5BB2"/>
<path fill-rule="evenodd" clip-rule="evenodd" d="M286.836 212.602L286.574 213.018L286.847 213.186C283.683 226.389 274.82 234.631 265.839 239.589C255.887 245.082 245.813 246.548 243.166 246.268L243.086 246.259L243.03 246.745L243.112 246.755C245.803 247.04 256.028 245.566 266.083 240.016C275.128 235.022 284.055 226.731 287.289 213.461C295.717 218.741 308.278 228.219 319.006 242.874C326.521 253.139 333.138 265.947 336.804 281.633L336.848 281.823H337.046C337.062 281.823 342.504 281.823 340.131 285.331L340.023 285.489L340.152 285.63C340.223 285.708 364.78 312.32 370.364 354.061L370.855 353.999C365.475 313.77 342.526 287.535 340.648 285.445C342.995 281.77 338.285 281.38 337.244 281.337C333.552 265.667 326.929 252.86 319.408 242.588C308.571 227.784 295.873 218.24 287.409 212.957C287.716 211.623 287.968 210.242 288.156 208.808C288.199 208.474 288.239 208.149 288.273 207.836L287.779 207.784C287.742 208.12 287.704 208.441 287.664 208.746C287.487 210.105 287.251 211.415 286.964 212.681L286.836 212.602ZM276.227 249.793C276.185 249.869 261.823 275.998 231.118 296.275C231.295 297.208 231.892 301.759 226.728 301.759C221.848 301.759 225.096 305.395 225.105 305.404L225.212 305.525L225.144 305.67C225.092 305.778 207.352 343.484 186.906 360.053L186.591 359.676C206.261 343.736 223.444 308.085 224.627 305.602C224.036 304.882 221.338 301.269 226.728 301.269C231.841 301.269 230.603 296.236 230.599 296.221L230.561 296.057L230.703 295.962C261.402 275.74 275.75 249.633 275.792 249.558L276.227 249.793Z" fill="#B9D6F1"/>
<path fill-rule="evenodd" clip-rule="evenodd" d="M173.574 166.957C173.574 166.957 188.67 180.766 196.372 185.773C203.919 190.781 196.193 208.158 185.253 203.273L164.947 191.996L173.574 166.957" fill="#F7948D"/>
<path fill-rule="evenodd" clip-rule="evenodd" d="M181.742 201.323L164.947 191.996L172.822 169.138C188.307 177.778 184.523 193.93 181.742 201.323" fill="#F3637D"/>
<path fill-rule="evenodd" clip-rule="evenodd" d="M138.596 174.731L141.967 171.41C149.015 171.072 163.341 168.761 175.77 156.597C175.879 156.692 175.987 156.791 176.091 156.894C178.799 159.561 178.799 163.884 176.091 166.552L176.309 166.765C184.456 174.792 184.456 187.926 176.309 195.952C168.161 203.979 154.829 203.979 146.682 195.952L138.796 188.183C139.45 184.953 139.887 180.142 138.596 174.731" fill="#F7948D"/>
<path fill-rule="evenodd" clip-rule="evenodd" d="M138.596 174.731L141.967 171.41C149.015 171.072 163.341 168.761 175.77 156.597C162.607 172.956 143.045 172.432 143.045 172.432L141.312 174.675C144.671 176.944 149.207 180.406 151.953 184.193C147.972 186.105 152.302 190.149 156.614 187.05L172.597 198.858C164.518 203.82 153.685 202.851 146.682 195.952L138.796 188.183C139.646 183.978 139.685 179.374 138.596 174.731" fill="#F3637D"/>
<path fill-rule="evenodd" clip-rule="evenodd" d="M144.969 185.066L144.97 185.065C145.333 184.445 146.144 184.231 146.775 184.589L147.474 184.988C148.104 185.345 148.321 186.145 147.958 186.765V186.766C147.594 187.386 146.782 187.601 146.152 187.243L145.452 186.844C144.823 186.486 144.605 185.687 144.969 185.066Z" fill="#1D1D40"/>
<path fill-rule="evenodd" clip-rule="evenodd" d="M154.81 174.351C155.173 173.73 155.985 173.515 156.614 173.874L157.315 174.272C157.945 174.63 158.162 175.43 157.799 176.05H157.798C157.435 176.671 156.623 176.885 155.993 176.527L155.294 176.129C154.664 175.771 154.446 174.971 154.81 174.351Z" fill="#1D1D40"/>
<path fill-rule="evenodd" clip-rule="evenodd" d="M151.277 167.66C152.811 167.255 154.264 167.699 154.523 168.652C154.782 169.605 153.749 170.705 152.215 171.11C150.683 171.514 149.229 171.07 148.97 170.118C148.711 169.165 149.744 168.064 151.277 167.66Z" fill="#1D1D40"/>
<path fill-rule="evenodd" clip-rule="evenodd" d="M141.178 182.551C141.589 181.041 141.138 179.609 140.172 179.353C139.204 179.098 138.087 180.116 137.676 181.627C137.265 183.137 137.717 184.569 138.683 184.823C139.65 185.08 140.767 184.061 141.178 182.551" fill="#1D1D40"/>
<path fill-rule="evenodd" clip-rule="evenodd" d="M162.073 194.703C164.49 192.811 168.451 189.096 167.236 185.839L167.968 185.575C169.344 189.264 165.112 193.287 162.56 195.299L162.073 194.703" fill="#F3637D"/>
<path fill-rule="evenodd" clip-rule="evenodd" d="M156.776 184.446C157.376 184.104 158.085 184.203 158.357 184.668C158.492 184.897 158.495 185.172 158.392 185.432C158.38 185.366 158.357 185.303 158.322 185.243C158.12 184.898 157.593 184.824 157.146 185.079C156.7 185.332 156.5 185.819 156.703 186.164C156.738 186.224 156.782 186.275 156.834 186.318C156.553 186.276 156.313 186.135 156.179 185.906C155.906 185.442 156.174 184.787 156.776 184.446" fill="#F3637D"/>
<path fill-rule="evenodd" clip-rule="evenodd" d="M527.627 387.242H546.384V389.694H527.627V387.242ZM494.178 381.013C498.557 381.013 502.329 383.566 504.046 387.242H513.806V389.694H206.956V387.242H227.226C227.226 382.23 231.351 378.166 236.439 378.166C241.528 378.166 245.653 382.23 245.653 387.242H484.31C486.027 383.566 489.799 381.013 494.178 381.013V381.013ZM115.97 387.242H196.756V389.694H115.97V387.242Z" fill="#3C3478"/>
<path fill-rule="evenodd" clip-rule="evenodd" d="M261.876 363.93L263.217 363.987L263.377 360.242C263.447 358.62 264.852 357.347 266.5 357.415L274.414 357.745L274.584 353.781L280.177 352.888L279.958 357.977L287.872 358.306C289.519 358.375 290.811 359.76 290.741 361.383L290.58 365.127L291.921 365.182C293.397 365.244 294.694 366.438 294.496 367.811L288.124 411.923C287.925 413.296 286.808 414.39 285.332 414.329L264.229 413.45C262.753 413.389 261.733 412.205 261.654 410.82L259.085 366.336C259.005 364.952 260.4 363.869 261.876 363.93" fill="white"/>
<path fill-rule="evenodd" clip-rule="evenodd" d="M263.326 366.574H293.399C294.876 366.574 296.223 367.714 296.084 369.093L291.609 413.431C291.47 414.811 290.401 415.95 288.924 415.95H267.802C266.325 415.95 265.255 414.811 265.116 413.431L260.641 369.093C260.502 367.714 261.85 366.574 263.326 366.574" fill="#EB6279"/>
<path fill-rule="evenodd" clip-rule="evenodd" d="M267.667 359.872H289.058C290.707 359.872 292.057 361.201 292.057 362.826V366.574H264.668V362.826C264.668 361.201 266.018 359.872 267.667 359.872Z" fill="#E83F5B"/>
<path fill-rule="evenodd" clip-rule="evenodd" d="M275.588 355.905L281.137 354.779V359.872H275.588V355.905Z" fill="#E83F5B"/>
<path fill-rule="evenodd" clip-rule="evenodd" d="M278.363 376.455C283.058 376.044 286.866 379.462 286.866 384.087C286.866 388.714 283.058 392.796 278.363 393.207C273.667 393.618 269.86 390.201 269.86 385.575C269.86 380.949 273.667 376.865 278.363 376.455Z" fill="white"/>
<path fill-rule="evenodd" clip-rule="evenodd" d="M275.951 376.446C279.313 376.152 282.04 378.599 282.04 381.912C282.04 385.225 279.313 388.15 275.951 388.444C272.587 388.738 269.86 386.29 269.86 382.977C269.86 379.664 272.587 376.739 275.951 376.446" fill="#B6495B"/>
<path fill-rule="evenodd" clip-rule="evenodd" d="M261.42 414.725H297.093V417.177H261.42V414.725ZM309.016 414.725H301.067V417.177H309.016V414.725Z" fill="#3C3478"/>
<path fill-rule="evenodd" clip-rule="evenodd" d="M448.778 269.855C448.778 269.855 467.206 244.57 467.206 232.9C467.206 224.002 445.976 173.47 424.805 148.806C421.094 148.427 417.681 149.019 417.681 149.019C418.867 147.331 420.17 146.066 421.443 145.117C415.983 139.495 410.603 135.835 405.671 135.324C405.671 135.324 401.063 138.242 401.063 143.428C401.063 147.207 406.129 181.095 411.169 211.751C414.681 212.394 418.599 213.682 422.474 216.095C422.474 216.095 417.95 215.593 411.971 216.604C412.552 220.094 413.128 223.518 413.692 226.823C418.133 225.539 424.84 224.554 432.325 226.739C432.325 226.739 423.13 228.23 415.019 234.492C415.542 237.475 416.048 240.311 416.53 242.949C416.53 242.949 420.807 260.455 448.778 269.855" fill="#5BC134"/>
<path fill-rule="evenodd" clip-rule="evenodd" d="M417.442 152.295C417.566 152.628 460.923 267.819 455.32 350.29L454.082 350.209C459.666 268 416.4 153.049 416.277 152.715L417.442 152.295" fill="#5BC134"/>
<path fill-rule="evenodd" clip-rule="evenodd" d="M462.204 278.368C462.204 278.368 476.743 264.509 501.093 254.135C501.093 254.135 515.653 195.498 534.612 155.122C527.977 151.995 520.345 149.589 520.345 149.589C525.723 148.596 532.129 149.166 537.112 149.963C541.621 140.947 546.343 133.102 551.155 127.415C551.155 127.415 554.072 112.471 532.355 118.956C520.944 122.362 502.313 137.675 484.716 162.062L493.2 168.065C493.2 168.065 487.949 167.187 481.446 166.718C466.78 188.173 453.209 215.923 445.646 248.3C445.646 248.3 449.864 271.56 462.204 278.368Z" fill="#4CD62B"/>
<path fill-rule="evenodd" clip-rule="evenodd" d="M455.557 340.516C455.564 340.241 457.292 245.562 491.2 191.735L492.255 192.377C458.526 245.919 456.802 340.267 456.797 340.539L455.557 340.516Z" fill="#5BC134"/>
<path fill-rule="evenodd" clip-rule="evenodd" d="M491.883 247.489C491.883 247.489 478.72 247.489 480.036 260.131C480.275 262.43 481.933 264.858 484.499 267.521C486.346 263.778 490.224 257.705 496.821 255.106C496.821 255.106 490.19 262.185 488.701 271.475C502.052 283.192 526.329 299.556 528.738 327.559C546.84 309.421 549.629 290.341 544.742 274.82C541.938 272.345 538.383 269.792 534.498 268.397C534.498 268.397 538.442 268.397 542.805 269.715C532.721 247.036 506.339 234.076 491.883 247.489" fill="#9CF885"/>
<path fill-rule="evenodd" clip-rule="evenodd" d="M525.837 285.584C525.804 285.469 514.328 245.37 489.751 248.323C465.212 251.27 467.816 340.579 467.823 340.836L466.584 340.865C466.578 340.605 463.931 250.19 489.605 247.107C515.24 244.028 526.998 285.131 527.033 285.249L525.837 285.584Z" fill="#8CD141"/>
<path fill-rule="evenodd" clip-rule="evenodd" d="M436.521 306.728C436.521 306.728 448.619 286.954 446.392 277.552C445.57 274.08 440.457 261.76 431.324 247.163C425.235 247.628 418.258 249.511 418.258 249.511C421.197 245.042 424.738 242.602 427.499 241.283C411.443 217.522 385.485 190.257 350.636 185.164C350.636 185.164 342.738 185.812 345.37 191.323C347.56 195.905 376.366 232.54 391.687 270.101C404.203 271.431 415.462 276.256 415.462 276.256C408.359 276.437 400.689 278.25 395.318 279.806C396.799 284.174 398.051 288.518 399.007 292.789C399.007 292.789 413.156 308.349 436.521 306.728" fill="#4CD62B"/>
<path fill-rule="evenodd" clip-rule="evenodd" d="M383.679 215.234C383.85 215.427 443.386 281.528 445.366 350.475L444.128 350.509C442.16 282.007 382.916 216.229 382.747 216.038L383.679 215.234Z" fill="#5BC134"/>
<path fill-rule="evenodd" clip-rule="evenodd" d="M436.432 277.33C436.432 277.33 449.587 277.706 447.9 290.307C447.593 292.597 445.864 294.977 443.222 297.566C441.485 293.771 437.788 287.591 431.27 284.805C431.27 284.805 437.69 292.067 438.906 301.397C430.484 308.368 417.881 316.978 408.673 329.071C403.257 325.737 396.541 327.798 396.541 327.798C401.008 328.398 404.158 331.033 405.917 332.965C401.525 339.661 398.272 347.356 397.235 356.315C380.759 338.82 377.782 320.881 381.889 306.032C385.731 302.989 392.049 298.772 399.338 297.002C399.338 297.002 393.089 294.848 386.393 295.192C397.962 274.687 422.996 264.122 436.432 277.33Z" fill="#9CF885"/>
<path fill-rule="evenodd" clip-rule="evenodd" d="M410.859 293.706C418.859 283.702 425.947 278.494 432.115 276.828C437.515 275.371 442.199 276.604 446.17 279.712C450.076 282.767 453.274 287.641 455.77 293.538C462.164 308.643 463.992 330.585 461.319 345.731L460.094 345.525C462.734 330.569 460.931 308.911 454.623 294.007C452.205 288.292 449.13 283.587 445.399 280.669C441.733 277.802 437.415 276.664 432.441 278.006C426.523 279.603 419.66 284.679 411.836 294.462L410.859 293.706" fill="#8CD141"/>
<path fill-rule="evenodd" clip-rule="evenodd" d="M423.435 331.29C420.706 356.306 425.969 385.728 438.571 407.793H478.435C491.037 385.728 496.301 356.306 493.573 331.29H423.435Z" fill="#E83F5B"/>
<path fill-rule="evenodd" clip-rule="evenodd" d="M428.983 385.489C431.46 393.398 434.662 400.95 438.571 407.793H478.435C491.037 385.728 496.301 356.306 493.573 331.29H478.277C481.088 354.712 482.449 394.91 459.226 397.656C445.493 399.28 435.715 393.164 428.983 385.489Z" fill="#E83F5B"/>
<path fill-rule="evenodd" clip-rule="evenodd" d="M422.749 342.547H494.257C494.216 339.867 494.092 337.215 493.883 334.605H423.122C422.913 337.215 422.789 339.867 422.749 342.547" fill="white"/>
<path fill-rule="evenodd" clip-rule="evenodd" d="M532.191 239.708C535.695 239.708 538.553 236.892 538.553 233.44C538.553 229.989 535.695 227.173 532.191 227.173C528.687 227.173 525.829 229.989 525.829 233.44C525.829 236.892 528.687 239.708 532.191 239.708Z" fill="#8CD141"/>
<path fill-rule="evenodd" clip-rule="evenodd" d="M533.728 203.401C535.66 203.401 537.238 201.848 537.238 199.943C537.238 198.038 535.66 196.485 533.728 196.485C531.794 196.485 530.216 198.038 530.216 199.943C530.216 201.848 531.794 203.401 533.728 203.401Z" fill="#8CD141"/>
<path fill-rule="evenodd" clip-rule="evenodd" d="M466.989 172.855C469.375 172.855 471.322 170.938 471.322 168.588C471.322 166.237 469.375 164.319 466.989 164.319C464.602 164.319 462.656 166.237 462.656 168.588C462.656 170.938 464.602 172.855 466.989 172.855Z" fill="#3C3478"/>
<path fill-rule="evenodd" clip-rule="evenodd" d="M376.545 280.338C379.143 280.338 381.262 278.25 381.262 275.691C381.262 273.131 379.143 271.044 376.545 271.044C373.947 271.044 371.829 273.131 371.829 275.691C371.829 278.25 373.947 280.338 376.545 280.338Z" fill="#8CD141"/>
<path fill-rule="evenodd" clip-rule="evenodd" d="M492.807 288.447C492.22 287.868 491.407 287.51 490.509 287.51C489.609 287.51 488.795 287.867 488.208 288.445C487.621 289.024 487.257 289.826 487.257 290.711C487.257 291.596 487.622 292.397 488.21 292.977C488.797 293.556 489.611 293.914 490.509 293.914C491.407 293.914 492.22 293.556 492.807 292.977C493.395 292.397 493.76 291.596 493.76 290.711C493.76 289.827 493.395 289.026 492.807 288.447V288.447ZM490.509 285.059C492.093 285.059 493.528 285.692 494.566 286.715C495.604 287.738 496.247 289.152 496.247 290.711C496.247 292.273 495.604 293.686 494.566 294.71C493.528 295.733 492.093 296.365 490.509 296.365C488.924 296.365 487.489 295.732 486.451 294.71C485.413 293.686 484.77 292.273 484.77 290.711C484.77 289.154 485.413 287.743 486.451 286.72L486.456 286.715C487.494 285.692 488.928 285.059 490.509 285.059" fill="#8CD141"/>
<path fill-rule="evenodd" clip-rule="evenodd" d="M401.991 406.771H410.02C410.02 406.771 414.103 398.581 423.426 398.848C431.14 399.07 435.081 404.803 436.21 406.771H436.863C437.714 405.136 440.402 401.071 445.811 401.932C450.58 402.691 451.869 405.307 452.217 406.771H489.144C489.53 404.258 491.732 402.333 494.391 402.333C497.05 402.333 499.253 404.258 499.638 406.771H500.924V408.799H401.991V406.771Z" fill="#3C3478"/>
</g>
<defs>
<clipPath id="clip0">
<rect width="673" height="442" fill="white"/>
</clipPath>
</defs>
</svg>
